<svg xmlns="http://www.w3.org/2000/svg" viewBox="0 0 100 100" width="64" height="64"><path fill="none" stroke="#000" stroke-linejoin="round" stroke-miterlimit="10" d="M48.537 60.436l-5.279 4.876s-.228.178-.54.186a.66.66 0 01-.335-.062l1.483-8.947"/><path fill="none" stroke="#000" stroke-linejoin="round" stroke-miterlimit="10" d="M37.75 53.357s3.913 10.95 3.992 11.143c.372.91.641.936.641.936l1.483-8.947"/><path fill="none" stroke="#000" stroke-linejoin="round" stroke-miterlimit="10" d="M64.375 34.5c-.73 0-1.575.372-1.575.372L29.938 48.177s-1.438.465-1.438 1.45c0 1.179 1.392 1.59 1.392 1.59l7.858 2.132.007.004 20.503-12.69a.755.755 0 011.08.147.793.793 0 01-.144 1.101L43.869 56.487l.005.003L56.38 67.074s.456.426 1.346.426c1.673 0 1.917-1.372 1.917-1.372s5.791-29.983 5.828-30.253a2.81 2.81 0 00.029-.375c0-.625-.5-1-1.125-1z"/><circle cx="50" cy="50" r="35" fill="none" stroke="#000" stroke-miterlimit="10" stroke-width="2"/><path fill="none" stroke="#000" stroke-linecap="round" stroke-linejoin="round" stroke-miterlimit="10" d="M65.5 23.727a30.804 30.804 0 00-2-1.084m5 3.106a29.761 29.761 0 00-1-.732m-7-3.661A30.449 30.449 0 0050 19.5c-16.845 0-30.5 13.655-30.5 30.5S33.155 80.5 50 80.5 80.5 66.845 80.5 50c0-8.952-3.857-17.004-10-22.583"/></svg>