<svg xmlns="http://www.w3.org/2000/svg" width="70" height="70"><path fill="none" stroke="#000" stroke-linejoin="round" stroke-miterlimit="10" stroke-width="2" d="M50 16c-18.778 0-34 15.222-34 34a33.834 33.834 0 004.444 16.799l-4.407 15.933a1 1 0 001.23 1.23L33.2 79.555A33.83 33.83 0 0050 84c18.778 0 34-15.222 34-34S68.778 16 50 16z"/><path fill="none" stroke="#000" stroke-miterlimit="10" d="M41.896 35.949c-.608-1.375-1.25-1.402-1.832-1.422-.475-.02-1.016-.02-1.558-.02-.535 0-1.417.203-2.159 1.029-.749.819-2.848 2.81-2.848 6.86 0 4.043 2.915 7.957 3.316 8.505.408.542 5.622 9.115 13.871 12.413 6.859 2.736 8.256 2.194 9.74 2.059 1.491-.142 4.807-1.991 5.482-3.914.675-1.916.675-3.562.475-3.907-.201-.345-.742-.549-1.558-.962-.809-.413-4.8-2.397-5.549-2.675-.742-.271-1.284-.406-1.825.413-.541.819-2.099 2.675-2.574 3.223-.475.549-.943.616-1.758.21-.809-.413-3.423-1.28-6.525-4.083-2.413-2.18-4.044-4.869-4.519-5.695-.475-.819-.053-1.266.354-1.679.368-.366.816-.962 1.223-1.442.401-.481.535-.819.809-1.368.267-.549.134-1.029-.067-1.442-.198-.415-1.776-4.478-2.498-6.103z"/><path fill="none" stroke="#000" stroke-linecap="round" stroke-linejoin="round" stroke-miterlimit="10" d="M57.5 23.544A27.497 27.497 0 0050 22.5c-15.188 0-27.5 12.312-27.5 27.5a27.366 27.366 0 004.975 15.767L24.89 75.11l9.344-2.584A27.365 27.365 0 0050 77.5c15.188 0 27.5-12.312 27.5-27.5 0-7.565-3.056-14.416-8-19.388m-6-4.568a27.546 27.546 0 00-3-1.464m7 4.206a27.658 27.658 0 00-2-1.501"/></svg>