<svg width="80" height="80" viewBox="0 0 300 190" fill="none" xmlns="http://www.w3.org/2000/svg"><path d="M150 79c9.181 0 16.625-7.443 16.625-16.625S159.181 45.75 150 45.75c-9.182 0-16.625 7.443-16.625 16.625S140.818 79 150 79zm0-3.5c7.248 0 13.125-5.876 13.125-13.125S157.248 49.25 150 49.25c-7.249 0-13.125 5.876-13.125 13.125S142.751 75.5 150 75.5z" fill="#8B8B8B"/><path d="M143.627 117.554c.27 2.976 2.58 6.071 6.373 6.071 3.792 0 6.102-3.095 6.373-6.071.297-3.268 2.799-7.004 6.949-11.141 2.83-2.822 5.992-5.43 9.042-7.947a263.059 263.059 0 003.979-3.326c2.784-2.39 5.448-5.047 7.715-8.183A41.822 41.822 0 00192 62.375c0-23.197-18.804-42-42-42-18.619 0-34.398 12.111-39.908 28.876a42.277 42.277 0 00-1.564 19.801 41.801 41.801 0 007.413 17.905c2.267 3.136 4.932 5.792 7.716 8.183a258.624 258.624 0 003.978 3.326c3.05 2.516 6.212 5.125 9.042 7.947 4.15 4.137 6.652 7.873 6.95 11.141zM150 23.875c-17.062 0-31.531 11.098-36.583 26.469a38.788 38.788 0 00-1.433 18.156 38.292 38.292 0 006.794 16.406c2.055 2.843 4.506 5.3 7.159 7.58a258.289 258.289 0 003.775 3.154c7.539 6.222 16.689 13.773 17.4 21.597.144 1.588 1.294 2.888 2.888 2.888 1.594 0 2.743-1.3 2.887-2.888.711-7.824 9.861-15.375 17.4-21.597a253.607 253.607 0 003.775-3.155c2.654-2.279 5.104-4.736 7.16-7.579a38.328 38.328 0 007.278-22.531c0-21.264-17.237-38.5-38.5-38.5zM29.392 151.88H22.2V140h-2.6v26.54h2.6v-12.384h7.192v12.384h2.6V140h-2.6v11.88zm65.992 3.744h-5.392v-8.028H87.5v18.944h2.492v-8.748h5.392v8.748h2.492v-18.944h-2.492v8.028zm37.763 10.916h-2.492v-18.944h2.492v7.682l5.478-7.682h2.636l-6.266 8.832 6.667 10.112h-2.828l-5.687-8.481v8.481zm37.501 0h2.492V149.8h4.176v-2.204h-10.88v2.204h4.212v16.74zm40.868-10.916h5.392v-8.028h2.492v18.944h-2.492v-8.748h-5.392v8.748h-2.492v-18.944h2.492v8.028zm36.554 10.916h2.492v-8.481l5.686 8.481h2.829l-6.667-10.112 6.266-8.832h-2.636l-5.478 7.682v-7.682h-2.492v18.944z" fill="#8B8B8B"/><path d="M266.282 164.37l.007-.003a4.038 4.038 0 001.049-.62l.01-.009.012-.009a3.61 3.61 0 00.843-.876l.43-.626.888 2.31-.119.174c-.291.423-.659.79-1.099 1.102-.377.295-.858.538-1.429.737-.583.237-1.245.35-1.978.35-1.971 0-3.512-.895-4.588-2.638l-.004-.006c-1.035-1.742-1.532-4.14-1.532-7.152 0-3.035.496-5.445 1.532-7.188 1.054-1.773 2.61-2.68 4.628-2.68.98 0 1.837.175 2.555.546.689.333 1.262.76 1.71 1.287l.135.158-.732 2.812-.498-.673a6.093 6.093 0 00-1.385-1.352c-.502-.355-1.092-.538-1.785-.538-.626 0-1.152.155-1.594.454-.444.299-.828.759-1.14 1.405-.612 1.315-.934 3.226-.934 5.769 0 2.47.322 4.347.935 5.663.3.646.678 1.105 1.121 1.403.441.298.973.454 1.612.454.532 0 .979-.089 1.35-.254zm-215.55 2.01l.009.005.009.005a4.605 4.605 0 002.087.474c1.84 0 3.313-.907 4.406-2.634l.001-.002c1.09-1.75 1.609-4.336 1.609-7.7 0-1.341-.11-2.568-.332-3.678-.221-1.13-.544-2.105-.974-2.915-.43-.836-.972-1.5-1.633-1.976a3.77 3.77 0 00-2.25-.723c-1.11 0-2.054.388-2.805 1.164a8.524 8.524 0 00-1 1.202l-.097-2.006h-2.257v24.56h2.492v-6.279c.223.185.468.352.735.503zm.7-15.874c.312-.31.627-.547.945-.717l.008-.004c.329-.185.658-.273.992-.273.84 0 1.556.506 2.12 1.746.565 1.244.864 3.038.864 5.414 0 2.861-.348 4.921-1.001 6.228-.654 1.285-1.465 1.832-2.415 1.832-.758 0-1.346-.167-1.79-.47-.439-.299-.828-.763-1.158-1.419v-9.981c.178-.434.386-.846.625-1.237l.005-.009c.25-.431.519-.8.806-1.11zm21.602 13.866c.38-.262.755-.853 1.062-1.908l.002-.007c.35-1.12.622-2.532.813-4.244a52.73 52.73 0 00.25-3.465v-.008c.143-2.38.245-4.76.296-7.144h8.64v16.776h1.655v5.732h-2.108l-.216-3.564h-9.111l-.216 3.564h-2.109v-5.732h1.042zm4.618-11.927a242.87 242.87 0 01-.18 3.029 69.465 69.465 0 01-.29 3.223c-.17 1.521-.388 2.8-.658 3.832-.169.709-.4 1.327-.697 1.843h5.741v-14.608H77.75l-.098 2.681zm38.085 6.665c-.792-.374-1.442-.978-1.95-1.795-.601-.967-.889-2.161-.889-3.559 0-1.018.137-1.919.421-2.694l.004-.011c.304-.759.701-1.404 1.197-1.926l.008-.008a4.65 4.65 0 011.842-1.138 6.344 6.344 0 012.22-.383h3.424v18.944h-2.456v-6.804h-1.545l-3.312 6.804h-2.66l3.696-7.43zm.575-8.45c-.582.562-.922 1.535-.922 3.024 0 1.469.305 2.453.832 3.042.56.6 1.322.914 2.332.914h1.004v-7.912h-.896c-.931 0-1.707.31-2.35.932zm-73.55 15.88l-.086-.285c-.073-.245-.158-.55-.255-.912l-.004-.014-.003-.015a8.917 8.917 0 01-.063-.395 5.704 5.704 0 01-1.098 1.141c-.726.564-1.595.84-2.585.84-1.339 0-2.448-.505-3.294-1.51l-.004-.004c-.845-1.03-1.242-2.427-1.242-4.142 0-2.011.535-3.596 1.67-4.68 1.13-1.103 2.745-1.624 4.778-1.624h1.58v-1.868c0-1.361-.25-2.256-.667-2.773-.41-.506-1.036-.787-1.957-.787-.703 0-1.358.164-1.971.493l-.01.005a3.952 3.952 0 00-1.507 1.31l-.479.692-.757-2.621.12-.159c.407-.543 1.002-.998 1.759-1.377.812-.418 1.765-.619 2.845-.619 1.587 0 2.859.455 3.747 1.421.916.947 1.333 2.388 1.333 4.235v9.9c0 .608.035 1.229.105 1.863.07.613.163 1.057.267 1.35l.191.535h-2.413zm-1.913-2.713c.55-.638.987-1.411 1.307-2.326v-4.537h-1.544c-1.457 0-2.45.348-3.066.963-.612.612-.962 1.638-.962 3.173 0 1.25.243 2.149.677 2.75.453.595 1.03.882 1.767.882.71 0 1.309-.287 1.816-.899l.005-.006zm155.36-11.119c.63 1.282 1.573 2.231 2.822 2.835l-4.802 10.997h2.71l4.5-10.404h1.893v10.404h2.6V140h-4c-.85 0-1.684.181-2.5.538l-.004.001a6.899 6.899 0 00-2.14 1.528l-.005.006c-.616.667-1.109 1.493-1.484 2.467-.38.989-.567 2.095-.567 3.312 0 1.823.321 3.442.974 4.848l.003.008zm4.233-10.072l.007-.003a3.41 3.41 0 011.483-.357h1.4v11.584h-1.652c-.485 0-.949-.115-1.398-.35-.443-.233-.856-.586-1.233-1.074-.351-.483-.644-1.098-.874-1.856-.225-.745-.343-1.64-.343-2.692 0-.974.128-1.803.373-2.494.252-.708.566-1.289.939-1.75.398-.464.832-.796 1.298-1.008zm38.201 20.267c.3.598.665 1.024 1.086 1.301.419.276.916.42 1.508.42.558 0 1.031-.089 1.429-.257a4.014 4.014 0 001.048-.62l.011-.009.011-.009c.323-.236.604-.527.843-.876l.426-.619.895 2.268-.124.177a4.73 4.73 0 01-1.138 1.138 5.724 5.724 0 01-1.421.732c-.585.238-1.261.351-2.016.351-1.019 0-1.925-.22-2.704-.676-.779-.455-1.409-1.134-1.895-2.015-.958-1.74-1.417-4.133-1.417-7.141 0-1.51.134-2.86.406-4.048.27-1.203.641-2.237 1.121-3.095l.004-.008c.504-.856 1.108-1.52 1.819-1.969a4.153 4.153 0 012.342-.712c.865 0 1.65.224 2.343.677.695.455 1.254 1.127 1.687 1.992.433.866.73 1.932.902 3.185.173 1.238.184 2.673.038 4.302l-.032.364h-8.163c.076 2.268.416 3.973.991 5.147zm4.149-11.983c-.562-1.057-1.208-1.48-1.915-1.48-.759 0-1.478.463-2.138 1.6-.585 1.025-.945 2.541-1.046 4.584h5.792c.096-2.205-.153-3.749-.688-4.695l-.005-.009zm-134.225 15.433l.057.187h2.413a8.318 8.318 0 01-.458-1.885 16.733 16.733 0 01-.106-1.863v-9.9c0-1.847-.416-3.288-1.333-4.235-.888-.966-2.159-1.421-3.747-1.421-1.08 0-2.033.201-2.845.619-.747.374-1.378.869-1.878 1.536l.757 2.621.479-.692a3.952 3.952 0 011.506-1.31l.01-.005a4.105 4.105 0 011.971-.493c.921 0 1.548.281 1.957.787.418.517.667 1.412.667 2.773v1.868h-1.58c-2.032 0-3.647.521-4.777 1.624-1.136 1.084-1.67 2.669-1.67 4.68 0 1.715.397 3.112 1.242 4.142l.003.004c.847 1.005 1.956 1.51 3.294 1.51.991 0 1.86-.276 2.586-.84a5.7 5.7 0 001.097-1.141c.069.489.212.962.355 1.434zm-.55-4.852c-.319.915-.756 1.688-1.307 2.326l-.005.006c-.506.612-1.105.899-1.816.899-.735 0-1.313-.287-1.766-.882-.434-.601-.678-1.5-.678-2.75 0-1.535.351-2.561.963-3.173.616-.615 1.608-.963 3.065-.963h1.544v4.537zm113.525 2.871c.38-.262.754-.853 1.062-1.908l.002-.007c.35-1.12.622-2.532.812-4.244.119-1.119.203-2.274.25-3.465l.001-.008c.142-2.38.245-4.76.295-7.144h8.64v16.776h1.656v5.732h-2.108l-.216-3.564h-9.112l-.216 3.564H220.5v-5.732h1.042zm4.617-11.927c-.048.914-.108 1.924-.18 3.029a68.514 68.514 0 01-.29 3.223c-.169 1.521-.387 2.8-.657 3.832-.169.709-.399 1.327-.698 1.843h5.742v-14.608h-3.818l-.099 2.681zm-67.932 13.935l.009.005.009.005a4.606 4.606 0 002.087.474c1.84 0 3.314-.907 4.406-2.634l.001-.002c1.091-1.75 1.609-4.336 1.609-7.7 0-1.341-.11-2.568-.332-3.678-.221-1.13-.543-2.105-.973-2.915-.431-.836-.973-1.5-1.633-1.976a3.772 3.772 0 00-2.25-.723c-1.11 0-2.055.388-2.805 1.164a8.477 8.477 0 00-1.001 1.202l-.097-2.006H155v24.56h2.492v-6.279c.223.185.468.353.735.503zm.701-15.874a4.06 4.06 0 01.944-.717l.008-.004c.329-.185.658-.273.992-.273.84 0 1.556.506 2.12 1.746.566 1.244.864 3.038.864 5.414 0 2.861-.348 4.921-1.001 6.228-.654 1.285-1.464 1.832-2.415 1.832-.758 0-1.345-.167-1.791-.47-.437-.299-.827-.763-1.157-1.419v-9.981c.178-.434.386-.846.625-1.237l.005-.009c.25-.431.519-.8.806-1.11zm-8.794 16.034a13.26 13.26 0 00-.056-.187c-.143-.472-.286-.945-.355-1.434a5.727 5.727 0 01-1.097 1.141c-.726.564-1.595.84-2.586.84-1.338 0-2.448-.505-3.294-1.51l-.003-.004c-.845-1.03-1.243-2.427-1.243-4.142 0-2.011.535-3.596 1.67-4.68 1.131-1.103 2.745-1.624 4.778-1.624h1.58v-1.868c0-1.361-.25-2.256-.667-2.773-.409-.506-1.036-.787-1.957-.787-.703 0-1.358.164-1.971.493l-.01.005a3.952 3.952 0 00-1.506 1.31l-.48.692-.757-2.62c.501-.668 1.132-1.163 1.879-1.537.812-.418 1.765-.619 2.845-.619 1.587 0 2.859.455 3.747 1.421.916.947 1.333 2.388 1.333 4.235v9.9c0 .608.035 1.229.105 1.863.077.661.237 1.264.459 1.885h-2.414zm-1.913-2.713c.55-.638.987-1.411 1.307-2.326v-4.537h-1.544c-1.457 0-2.45.348-3.065.963-.613.612-.963 1.638-.963 3.173 0 1.25.244 2.149.677 2.75.453.595 1.031.882 1.767.882.711 0 1.309-.287 1.816-.899l.005-.006zm38.346 2.526l.057.187h2.413a8.318 8.318 0 01-.458-1.885 16.733 16.733 0 01-.106-1.863v-9.9c0-1.847-.416-3.288-1.333-4.235-.888-.966-2.159-1.421-3.747-1.421-1.08 0-2.033.201-2.845.619-.747.374-1.378.869-1.878 1.537l.757 2.62.479-.692a3.952 3.952 0 011.506-1.31l.01-.005a4.105 4.105 0 011.971-.493c.921 0 1.548.281 1.957.787.418.517.667 1.412.667 2.773v1.868h-1.58c-2.032 0-3.647.521-4.777 1.624-1.136 1.084-1.671 2.669-1.671 4.68 0 1.715.398 3.112 1.243 4.142l.003.004c.847 1.005 1.956 1.51 3.294 1.51.991 0 1.86-.276 2.586-.84a5.7 5.7 0 001.097-1.141c.069.489.212.962.355 1.434zm-.55-4.852c-.319.915-.756 1.688-1.307 2.326l-.005.006c-.506.612-1.105.899-1.816.899-.735 0-1.313-.287-1.766-.882-.434-.601-.678-1.5-.678-2.75 0-1.535.351-2.561.963-3.173.616-.615 1.608-.963 3.065-.963h1.544v4.537zm92.882 4.923l-.021-.072c-.143-.471-.286-.944-.355-1.433a5.727 5.727 0 01-1.097 1.141c-.726.564-1.595.84-2.586.84-1.338 0-2.448-.505-3.294-1.51l-.003-.004c-.845-1.03-1.243-2.427-1.243-4.142 0-2.011.535-3.596 1.67-4.68 1.131-1.103 2.745-1.624 4.778-1.624h1.58v-1.868c0-1.361-.25-2.256-.667-2.773-.409-.506-1.036-.787-1.957-.787-.703 0-1.358.164-1.971.493l-.01.005a3.952 3.952 0 00-1.506 1.31l-.48.692-.757-2.62c.501-.668 1.132-1.163 1.879-1.537.812-.418 1.765-.619 2.845-.619 1.587 0 2.859.455 3.747 1.421.916.947 1.333 2.388 1.333 4.235v9.9c0 .608.035 1.229.105 1.863.077.661.237 1.264.459 1.885h-2.414l-.035-.116zm-1.878-2.597c.55-.638.987-1.411 1.307-2.326v-4.537h-1.544c-1.457 0-2.45.348-3.065.963-.613.612-.963 1.638-.963 3.173 0 1.25.244 2.149.677 2.75.453.595 1.031.882 1.767.882.711 0 1.309-.287 1.816-.899l.005-.006zM63.71 166.266c-.73-.444-1.36-1.077-1.89-1.887l-.005-.007c-.508-.813-.906-1.814-1.201-2.995v-.002c-.298-1.214-.444-2.616-.444-4.199 0-1.536.146-2.913.443-4.126.295-1.228.692-2.265 1.199-3.101l.002-.003c.529-.857 1.156-1.528 1.888-1.999a4.382 4.382 0 012.412-.711c.86 0 1.66.209 2.394.629.74.422 1.36 1.062 1.868 1.898.534.814.944 1.829 1.238 3.033.298 1.192.444 2.581.444 4.164 0 1.536-.146 2.913-.444 4.127-.294 1.205-.704 2.241-1.233 3.1-.506.858-1.122 1.531-1.855 2.001a4.375 4.375 0 01-2.412.712c-.86 0-1.66-.209-2.395-.629l-.009-.005zm4.758-3.315l-.002.005c-.708 1.255-1.499 1.776-2.352 1.776a2.33 2.33 0 01-1.29-.401c-.388-.266-.756-.69-1.094-1.296-.312-.605-.577-1.393-.788-2.374-.185-1-.28-2.196-.28-3.593 0-2.738.372-4.679 1.062-5.883.729-1.229 1.532-1.745 2.39-1.745.444 0 .857.129 1.25.398l.01.007.01.006c.4.24.763.643 1.075 1.245l.005.01c.333.598.597 1.393.785 2.399l.002.011c.208.972.315 2.154.315 3.552 0 2.713-.383 4.655-1.098 5.883z" fill="#8B8B8B"/></svg>