<svg xmlns="http://www.w3.org/2000/svg" viewBox="0 0 100 100" width="50" height="50"><path d="M69 83H31c-7.72 0-14-6.28-14-14V31c0-7.72 6.28-14 14-14h38c7.72 0 14 6.28 14 14v38c0 7.72-6.28 14-14 14zM31 19c-6.617 0-12 5.383-12 12v38c0 6.617 5.383 12 12 12h38c6.617 0 12-5.383 12-12V31c0-6.617-5.383-12-12-12H31z"/><path d="M66.5 78h-33C27.159 78 22 72.841 22 66.5v-33C22 27.159 27.159 22 33.5 22h33c.353 0 .7.021 1.045.053a.5.5 0 01-.09.996A10.748 10.748 0 0066.5 23h-33C27.71 23 23 27.71 23 33.5v33C23 72.29 27.71 77 33.5 77h33C72.29 77 77 72.29 77 66.5v-17a.5.5 0 011 0v17C78 72.841 72.841 78 66.5 78zm11-38a.5.5 0 01-.5-.5v-2a.5.5 0 011 0v2a.5.5 0 01-.5.5zm0 7a.5.5 0 01-.5-.5v-4a.5.5 0 011 0v4a.5.5 0 01-.5.5z"/><path d="M50 73c-.523 0-12.854-.008-15.689-.73-1.722-.439-3.078-1.735-3.54-3.382C30.009 66.179 30 60.73 30 60.5s.009-5.679.771-8.389c.462-1.646 1.818-2.941 3.54-3.378C37.146 48.009 49.477 48 50 48s12.854.008 15.689.73c1.722.439 3.078 1.734 3.54 3.381.762 2.71.771 8.159.771 8.389s-.009 5.679-.771 8.389c-.462 1.646-1.818 2.941-3.54 3.378C62.854 72.991 50.523 73 50 73zm0-24c-.127 0-12.728.008-15.441.702-1.377.35-2.459 1.376-2.824 2.68C31.009 54.96 31 60.445 31 60.5s.009 5.54.734 8.117c.365 1.305 1.447 2.332 2.824 2.684C37.272 71.992 49.873 72 50 72s12.728-.008 15.441-.702c1.377-.35 2.459-1.376 2.824-2.68.726-2.578.735-8.063.735-8.118s-.009-5.54-.734-8.117v-.001c-.365-1.304-1.447-2.331-2.824-2.683C62.728 49.008 50.127 49 50 49z"/><path d="M38.998 69h-2.496V54.344H34V52h7.5v2.344h-2.502V69z"/><path d="M48.5 69h-2.25l-.252-1.605C45.014 68.402 43.839 69 42.925 69c-.8 0-1.362-.326-1.638-.924-.164-.376-.287-.935-.287-1.779V55.542h2.502v10.99c.061.337.325.468.647.468.501 0 1.301-.515 1.849-1.195V55.542H48.5V69zM66 62.836V59c0-1.105-.287-1.904-.8-2.42-.686-.705-1.676-1.08-2.912-1.08-1.263 0-2.238.375-2.95 1.08-.539.516-.838 1.363-.838 2.465v6.528c0 1.091.337 1.865.861 2.373.715.702 1.688 1.054 2.989 1.054 1.289 0 2.3-.364 2.977-1.116.299-.328.498-.705.586-1.116.011-.185.087-.691.087-1.29h-2.502v.941c0 .538-.563.985-1.248.985s-1.248-.447-1.248-.985v-3.583H66zm-4.998-4.647c0-.552.563-.988 1.248-.988s1.248.436 1.248.988v3.017h-2.499v-3.017h.003zm-3.824-1.242c-.314-.916-1.076-1.419-2.025-1.431-1.213-.011-1.715.587-2.652 1.616V52H50v17h2.251l.252-1.464c.785.913 1.811 1.464 2.649 1.464.95 0 1.761-.468 2.075-1.383.149-.493.261-.949.273-1.984v-6.154c.003-1.159-.158-2.039-.322-2.532zM55 65.331c0 1.231-.299 1.652-.973 1.652-.387 0-1.125-.246-1.527-.62v-8.057c.402-.374 1.137-.736 1.527-.736.674 0 .973.385.973 1.616v6.145zM37 28l2.849.003 1.84 8.09h.179l1.752-8.09h2.88l-3.292 11.178V45H40.38l-.006-5.503L37 28zm9.503 7.144c0-.957.324-1.722.975-2.287.645-.57 1.516-.854 2.612-.857.998 0 1.814.298 2.45.899.636.595.955 1.366.955 2.31l.006 6.389c0 1.057-.31 1.889-.934 2.496-.623.603-1.479.906-2.579.906-1.056 0-1.895-.314-2.534-.935-.633-.621-.949-1.458-.949-2.507l-.005-6.417.003.003zm2.5 6.645c0 .337.081.604.255.787.165.184.401.275.711.275.317 0 .566-.095.751-.287.185-.184.28-.448.28-.779l-.003-6.739a.828.828 0 00-.289-.654c-.188-.167-.437-.25-.745-.25-.286 0-.518.086-.697.25a.869.869 0 00-.266.655l.003 6.742zM63 32v13h-2.112l-.336-1.588c-.451.516-.92.908-1.412 1.176-.486.268-.961.412-1.418.412-.57 0-.995-.192-1.285-.57-.286-.372-.431-.939-.431-1.696L56 32h2.451l.006 9.857c0 .296.052.513.156.649.098.13.272.203.495.203.185 0 .414-.09.683-.268.278-.178.53-.406.758-.68L60.546 32H63z"/></svg>